<svg width="43" height="48" viewBox="0 0 43 48" fill="none" xmlns="http://www.w3.org/2000/svg">
<g clip-path="url(#clip0_4_19)">
<path d="M26.7417 10C28.4773 10.3811 30.0723 11.3365 31.3226 12.7439C32.5729 14.1512 33.4217 15.9465 33.7603 17.9M26.7417 2C30.3475 2.45087 33.7099 4.26835 36.2768 7.15402C38.8437 10.0397 40.4627 13.822 40.8678 17.88M39.0909 33.84V39.84C39.0929 40.397 38.9916 40.9483 38.7933 41.4587C38.5951 41.9691 38.3043 42.4272 37.9397 42.8037C37.575 43.1803 37.1445 43.467 36.6757 43.6454C36.2069 43.8239 35.7102 43.8901 35.2174 43.84C29.7497 43.1713 24.4976 41.0683 19.8831 37.7C15.5899 34.6293 11.95 30.5323 9.22191 25.7C6.21898 20.4824 4.3502 14.542 3.76696 8.36C3.72255 7.80693 3.78095 7.24952 3.93842 6.72325C4.0959 6.19698 4.349 5.71338 4.68162 5.30324C5.01424 4.89311 5.41909 4.56542 5.87039 4.34104C6.32168 4.11667 6.80954 4.00052 7.30291 4H12.6335C13.4958 3.99045 14.3318 4.33416 14.9856 4.96707C15.6395 5.59997 16.0665 6.47889 16.1872 7.44C16.4122 9.36013 16.8294 11.2455 17.431 13.06C17.6701 13.7758 17.7218 14.5538 17.5801 15.3018C17.4384 16.0497 17.1092 16.7362 16.6314 17.28L14.3748 19.82C16.9043 24.8271 20.5875 28.9729 25.036 31.82L27.2926 29.28C27.7757 28.7423 28.3856 28.3717 29.0501 28.2122C29.7146 28.0527 30.4058 28.1109 31.0417 28.38C32.6538 29.0571 34.3288 29.5268 36.0347 29.78C36.8979 29.9171 37.6861 30.4064 38.2496 31.155C38.8131 31.9036 39.1125 32.8592 39.0909 33.84Z" stroke="#1D00CF" stroke-width="4" stroke-linecap="round" stroke-linejoin="round"/>
</g>
<defs>
<clipPath id="clip0_4_19">
<rect width="42.6446" height="48" fill="white"/>
</clipPath>
</defs>
</svg>
