<svg width="36" height="40" viewBox="0 0 36 40" fill="none" xmlns="http://www.w3.org/2000/svg">
<g clip-path="url(#clip0_1_31)">
<path d="M1.4762 2.27512H7.38096L11.3371 24.2375C11.4721 24.9927 11.8419 25.671 12.3816 26.1538C12.9214 26.6366 13.5968 26.893 14.2895 26.8783H28.6381C29.3309 26.893 30.0063 26.6366 30.546 26.1538C31.0858 25.671 31.4555 24.9927 31.5905 24.2375L33.9524 10.4762H8.85715M14.7619 35.0793C14.7619 35.9852 14.101 36.7196 13.2857 36.7196C12.4704 36.7196 11.8095 35.9852 11.8095 35.0793C11.8095 34.1735 12.4704 33.4391 13.2857 33.4391C14.101 33.4391 14.7619 34.1735 14.7619 35.0793ZM31 35.0793C31 35.9852 30.3391 36.7196 29.5238 36.7196C28.7085 36.7196 28.0476 35.9852 28.0476 35.0793C28.0476 34.1735 28.7085 33.4391 29.5238 33.4391C30.3391 33.4391 31 34.1735 31 35.0793Z" stroke="#1E1E1E" stroke-width="4" stroke-linecap="round" stroke-linejoin="round"/>
</g>
<defs>
<clipPath id="clip0_1_31">
<rect width="35.4286" height="39.3651" fill="white" transform="translate(0 0.634918)"/>
</clipPath>
</defs>
</svg>
